<?xml version="1.0" encoding="UTF-8"?>
<svg id="Layer_1" xmlns="http://www.w3.org/2000/svg" version="1.1" viewBox="-100 -60 812 912">
  <path d="M569.5,377.5c33.95-.77,65.99-.06,84,15l-1,2c-17.57-.17-71.72-9.84-86-1-7.43,4.6-14.56,47.15-18,59-9.31,32.04-39.07,133.25-16,166,5.88,8.34,14.98,8.45,25,13l-2,3c-46.9,16.22-78.53-11.36-69-70,9.57-58.87,25.44-111.95,36-166-24.24.65-105.16,15.26-120,25l-22,64c-29.41,75.13-51.92,142.61-107,191-19.43,17.07-82.07,41.75-106,10l2-4c105.77,11.89,131.7-81.27,159-157l32-96c-29.47,2.91-58.28,14.94-84,23-70.29,22.04-141.11,47.18-201,82-25.82,15.01-77.97,59.32-113,39-13.36-41.64,53.11-105.83,74-133,54.38-70.71,124.68-146.43,194-202l115-94v-1c-92.63-1.4-180.45,6.25-251,31-14.73,5.17-66.87,32.33-75,26-7.37-3.54-12.12-14.12-13-24,37.44-44.21,199.25-54.74,282-56,39.17-.6,104.75-9.75,116,19-3.17,23.33-93.03,80.66-114,97-68.14,53.08-136.96,116.72-191,184-22.88,28.48-52.44,53.4-71,86v1h1c65.74-24.92,130.38-52.61,201-74l140-36c9.57-40.5,29.07-80.75,44-118,22.01-54.93,41.15-111.25,69-161,6.43-11.48,50.15-86.68,66-53-9.14,32.08-30.15,53.84-43,83-34.05,77.24-70.93,157.26-94,242,13.65-.34,112.82-12.67,116-17l23-72c15.6-43.96,62.26-153.23,97-172l5,2v1c-2.14,24.91-17.45,44.08-26,64-16.36,38.13-27.93,77.13-41,119-5.87,18.82-15.22,38.24-17,60Z"/>
</svg>